<svg width="378" height="175" viewBox="0 0 378 175" fill="none" xmlns="http://www.w3.org/2000/svg">
<path d="M78.4997 150.595L70.9084 129.046C67.6507 130.302 64.0941 130.989 60.3582 130.989H56.0246C52.1094 130.989 48.3735 130.242 45.0261 128.867L37.375 150.595C37.375 150.595 43.1432 162.4 57.9673 154.181C72.7315 162.371 78.4997 150.595 78.4997 150.595Z" fill="#31A8FF"/>
<path d="M88.6317 64.639C88.6317 58.273 85.4935 52.5347 80.5021 48.6493C79.994 48.7091 79.4859 48.7689 78.9778 48.8586C73.5085 49.6057 67.7702 50.6219 61.8525 51.9668C61.5835 52.0266 61.3444 52.0565 61.0754 52.0565C59.8799 52.0565 58.7741 51.4587 58.0867 50.4426L53.514 43.449L52.3484 41.6558L51.9001 40.9683C51.6909 40.6396 51.5115 40.2809 51.4219 39.8924C51.2426 39.205 51.2724 38.4578 51.5414 37.8003C51.93 36.7543 52.7967 35.9174 53.8726 35.6185C57.2798 34.6323 59.6408 32.839 61.0455 30.1791C64.3032 23.9924 61.464 15.1757 61.4341 15.0861C61.3145 14.6975 61.2548 14.2791 61.2548 13.8906C60.1788 13.7112 59.073 13.6216 57.9373 13.6216C46.2813 13.6216 36.8668 23.0659 36.8668 34.692V43.4191V45.4813V47.5734C31.0388 51.4289 27.2432 57.6454 27.2432 64.639L32.3838 106.212C32.3838 114.79 38.0623 122.172 46.2215 125.519C49.2102 126.745 52.5277 127.432 56.0544 127.432H60.388C63.7055 127.432 66.8735 126.804 69.7726 125.698C78.1709 122.441 84.0587 114.939 84.0587 106.212L88.6317 64.639ZM52.2886 20.0174C56.9809 20.0174 56.9809 27.3099 52.2886 27.3099C47.5966 27.3099 47.5664 20.0174 52.2886 20.0174Z" fill="#31A8FF"/>
<path d="M146.762 61.4112C147.569 61.4112 146.822 58.0937 146.165 48.5C143.953 16.0724 84.5074 13.8906 68.6374 13.8906C66.1866 13.8906 64.7819 13.9504 64.7819 13.9504C64.7819 13.9504 64.9015 14.2792 65.0509 14.847C66.1268 18.822 69.4144 34.7519 54.8594 38.9958L55.4272 39.8626L56.5928 41.6558L57.7584 43.449L61.0759 48.5C66.2464 47.3344 71.0881 46.4378 75.6608 45.7503C76.677 45.6009 77.6932 45.4515 78.6795 45.3319C78.7691 45.3319 78.8887 45.302 78.9783 45.302C79.8152 45.1825 80.6221 45.0928 81.4291 45.0032C87.3763 44.3158 92.7862 43.987 97.7176 43.987C135.016 43.9571 144.909 61.4112 146.762 61.4112Z" fill="black"/>
<path d="M109.511 70.735C112.433 70.6618 115.318 70.6008 118.167 70.5519C121.039 70.4787 123.766 70.4421 126.347 70.4421C129.756 70.4421 132.738 70.9181 135.294 71.8702C137.851 72.7978 139.847 74.2503 141.284 76.2277C142.72 78.1806 143.438 80.6951 143.438 83.771C143.438 85.553 143.025 87.2253 142.197 88.7876C141.393 90.35 140.322 91.6438 138.983 92.6691C137.644 93.6944 136.159 94.3047 134.528 94.5V93.3282C136.5 93.4259 138.338 94.0972 140.042 95.3422C141.771 96.5872 143.158 98.1984 144.205 100.176C145.252 102.129 145.776 104.24 145.776 106.511C145.776 109.928 145.021 112.736 143.511 114.933C142.026 117.105 139.92 118.717 137.193 119.766C134.467 120.816 131.241 121.341 127.516 121.341C124.691 121.341 121.758 121.304 118.714 121.231C115.695 121.182 112.628 121.121 109.511 121.048L109 120.535V71.2477L109.511 70.735ZM120.504 113.138C121.697 113.114 122.829 113.102 123.9 113.102C124.971 113.077 125.897 113.065 126.676 113.065C128.672 113.065 130.194 112.699 131.241 111.967C132.312 111.21 133.042 110.294 133.432 109.22C133.846 108.122 134.053 107.06 134.053 106.035C134.053 104.96 133.834 103.874 133.395 102.776C132.982 101.653 132.227 100.713 131.131 99.9561C130.06 99.1993 128.55 98.8209 126.603 98.8209H116.121V90.5087H125.763C127.418 90.5087 128.696 90.2157 129.597 89.6298C130.498 89.0195 131.131 88.2628 131.496 87.3595C131.862 86.4563 132.044 85.5286 132.044 84.5766C132.044 83.6001 131.862 82.6724 131.496 81.7936C131.131 80.9148 130.486 80.1946 129.561 79.6332C128.66 79.0473 127.394 78.7543 125.763 78.7543C125.13 78.7543 124.326 78.7543 123.352 78.7543C122.379 78.7299 121.429 78.7055 120.504 78.6811V113.138Z" fill="black"/>
<path d="M168.912 112.553C169.18 113.358 169.399 114.237 169.569 115.189C169.74 116.117 169.825 117.044 169.825 117.972C169.825 118.387 169.8 118.826 169.752 119.29C169.727 119.754 169.654 120.169 169.533 120.535C168.437 120.706 167.207 120.865 165.844 121.011C164.481 121.182 163.093 121.268 161.681 121.268C158.37 121.268 156.02 120.45 154.632 118.814C153.269 117.154 152.587 114.579 152.587 111.088V67.5127L153.099 67H157.554C159.794 67 161.376 67.5127 162.302 68.538C163.251 69.5633 163.726 71.3453 163.726 73.8842V109.074C163.726 111.393 164.785 112.553 166.903 112.553H168.912Z" fill="black"/>
<path d="M205.783 110.465C205.783 111.637 205.965 112.699 206.331 113.651C206.72 114.603 207.219 115.299 207.828 115.738C207.633 116.764 207.183 117.838 206.477 118.961C205.771 120.084 205.065 120.926 204.358 121.487C201.12 121.439 198.649 120.328 196.945 118.155C195.241 115.982 194.388 113.37 194.388 110.319V84.3569C195.168 84.2104 196.068 84.1005 197.091 84.0273C198.114 83.9541 199.112 83.9174 200.086 83.9174C201.035 83.9174 202.009 83.9541 203.007 84.0273C204.03 84.1005 204.955 84.2104 205.783 84.3569V110.465ZM174.412 93.5113C174.412 92.071 174.266 90.7284 173.974 89.4834C173.706 88.2383 173.243 87.152 172.586 86.2244C173.438 85.5164 174.485 84.9305 175.727 84.4667C176.968 84.0029 178.295 83.771 179.707 83.771C181.996 83.771 183.579 84.3813 184.455 85.6019C185.356 86.8225 185.806 88.5679 185.806 90.8382V106.437C185.806 108.073 186.025 109.294 186.464 110.099C186.926 110.88 187.754 111.271 188.947 111.271C189.702 111.271 190.566 111.076 191.54 110.685C192.538 110.27 193.524 109.599 194.498 108.671C195.496 107.743 196.361 106.523 197.091 105.009V115.006C195.387 116.69 193.536 118.204 191.54 119.547C189.543 120.889 187.243 121.561 184.638 121.561C182.422 121.561 180.547 121.011 179.014 119.913C177.504 118.79 176.36 117.252 175.581 115.299C174.802 113.322 174.412 111.063 174.412 108.525V93.5113Z" fill="black"/>
<path d="M219.58 106.328V98.4547H233.348V97.6125C233.348 96.4896 233.19 95.4643 232.873 94.5366C232.557 93.5846 232.045 92.8278 231.339 92.2663C230.658 91.6804 229.733 91.3875 228.564 91.3875C226.787 91.3875 225.533 92.1198 224.802 93.5846C224.096 95.0493 223.743 97.3074 223.743 100.359V103.801C223.743 105.461 223.889 107.011 224.181 108.451C224.474 109.892 225.094 111.051 226.044 111.93C226.993 112.809 228.442 113.248 230.39 113.248C232.045 113.248 233.664 113.041 235.247 112.626C236.854 112.186 238.388 111.662 239.849 111.051C240.701 111.881 241.382 112.931 241.894 114.2C242.405 115.47 242.746 116.678 242.916 117.826C241.066 119.168 238.85 120.194 236.27 120.901C233.713 121.634 231.132 122 228.527 122C225.314 122 222.66 121.475 220.566 120.425C218.472 119.351 216.817 117.911 215.599 116.105C214.382 114.274 213.518 112.223 213.006 109.953C212.519 107.658 212.276 105.302 212.276 102.885C212.276 99.1993 212.824 95.8793 213.919 92.9254C215.039 89.9472 216.804 87.5914 219.215 85.8582C221.625 84.1249 224.766 83.2583 228.637 83.2583C231.851 83.2583 234.59 83.9419 236.854 85.3089C239.118 86.676 240.847 88.5313 242.04 90.8748C243.257 93.194 243.866 95.8305 243.866 98.7843C243.866 100.42 243.781 101.787 243.61 102.885C243.464 103.96 243.221 105.107 242.88 106.328H219.58Z" fill="black"/>
<path d="M252.382 70.735C255.303 70.6618 258.188 70.6008 261.037 70.5519C263.91 70.4787 266.637 70.4421 269.218 70.4421C272.626 70.4421 275.609 70.9181 278.165 71.8702C280.721 72.7978 282.718 74.2503 284.154 76.2277C285.591 78.1806 286.309 80.6951 286.309 83.771C286.309 85.553 285.895 87.2253 285.067 88.7876C284.264 90.35 283.193 91.6438 281.853 92.6691C280.514 93.6944 279.029 94.3047 277.398 94.5V93.3282C279.37 93.4259 281.208 94.0972 282.913 95.3422C284.641 96.5872 286.029 98.1984 287.076 100.176C288.123 102.129 288.646 104.24 288.646 106.511C288.646 109.928 287.891 112.736 286.382 114.933C284.897 117.105 282.791 118.717 280.064 119.766C277.337 120.816 274.111 121.341 270.386 121.341C267.562 121.341 264.628 121.304 261.585 121.231C258.566 121.182 255.498 121.121 252.382 121.048L251.871 120.535V71.2477L252.382 70.735ZM263.374 113.138C264.567 113.114 265.699 113.102 266.771 113.102C267.842 113.077 268.767 113.065 269.546 113.065C271.543 113.065 273.064 112.699 274.111 111.967C275.182 111.21 275.913 110.294 276.302 109.22C276.716 108.122 276.923 107.06 276.923 106.035C276.923 104.96 276.704 103.874 276.266 102.776C275.852 101.653 275.097 100.713 274.002 99.9561C272.93 99.1993 271.421 98.8209 269.473 98.8209H258.992V90.5087H268.633C270.289 90.5087 271.567 90.2157 272.468 89.6298C273.369 89.0195 274.002 88.2628 274.367 87.3595C274.732 86.4563 274.915 85.5286 274.915 84.5766C274.915 83.6001 274.732 82.6724 274.367 81.7936C274.002 80.9148 273.356 80.1946 272.431 79.6332C271.53 79.0473 270.264 78.7543 268.633 78.7543C268 78.7543 267.197 78.7543 266.223 78.7543C265.249 78.7299 264.3 78.7055 263.374 78.6811V113.138Z" fill="black"/>
<path d="M308.678 120.901C307.875 121.048 306.962 121.158 305.939 121.231C304.941 121.304 303.955 121.341 302.981 121.341C302.031 121.341 301.045 121.304 300.023 121.231C299.025 121.158 298.099 121.048 297.247 120.901V96.6605C297.247 95.4399 296.992 94.4268 296.48 93.6212C295.993 92.8156 295.105 92.4128 293.814 92.4128H292.719C292.402 91.1678 292.244 89.8739 292.244 88.5313C292.244 87.8966 292.281 87.2253 292.354 86.5173C292.427 85.785 292.548 85.0892 292.719 84.4301C293.839 84.308 294.983 84.2226 296.152 84.1738C297.345 84.1005 298.343 84.0639 299.146 84.0639H300.717C303.176 84.0639 305.111 84.8573 306.523 86.4441C307.96 88.0064 308.678 90.1303 308.678 92.8156V120.901ZM295.056 74.0672C295.056 73.3837 295.129 72.6758 295.275 71.9434C295.421 71.1866 295.628 70.4665 295.896 69.783C296.529 69.4656 297.345 69.1971 298.343 68.9774C299.365 68.7577 300.364 68.6478 301.338 68.6478C302.336 68.6478 303.346 68.7577 304.369 68.9774C305.416 69.1971 306.219 69.4656 306.779 69.783C307.047 70.4665 307.254 71.1988 307.4 71.98C307.546 72.7368 307.619 73.4325 307.619 74.0672C307.619 74.7264 307.546 75.4343 307.4 76.1911C307.254 76.9478 307.047 77.6558 306.779 78.3149C306.219 78.6323 305.416 78.9008 304.369 79.1205C303.346 79.3402 302.336 79.4501 301.338 79.4501C300.364 79.4501 299.353 79.3524 298.306 79.1571C297.259 78.9374 296.456 78.6567 295.896 78.3149C295.628 77.6558 295.421 76.9478 295.275 76.1911C295.129 75.4343 295.056 74.7264 295.056 74.0672Z" fill="black"/>
<path d="M341.9 84.4667C341.9 85.8094 341.657 87.5304 341.17 89.6298C340.683 91.7048 339.977 93.5479 339.052 95.1591C338.419 94.915 337.786 94.7441 337.153 94.6465C336.544 94.5488 335.923 94.4634 335.29 94.3901C334.316 94.3901 333.44 94.5732 332.661 94.9394C331.882 95.2812 331.176 95.7938 330.543 96.4774C329.91 97.1609 329.313 98.0031 328.753 99.004C328.193 100.005 327.658 101.152 327.146 102.446L325.868 100.725C325.99 98.6988 326.246 96.6971 326.635 94.7197C327.025 92.7179 327.621 90.8992 328.425 89.2636C329.228 87.6281 330.324 86.322 331.711 85.3455C333.123 84.3446 334.901 83.8442 337.043 83.8442C338.163 83.8442 339.064 83.9052 339.746 84.0273C340.452 84.1249 341.17 84.2714 341.9 84.4667ZM315.131 89.6664C315.326 88.6411 315.776 87.5426 316.483 86.3708C317.189 85.1747 317.895 84.308 318.601 83.771C321.985 84.0151 324.529 85.2723 326.233 87.5426C327.962 89.7885 328.985 92.7423 329.301 96.4041V120.901C328.498 121.048 327.597 121.158 326.599 121.231C325.6 121.304 324.602 121.341 323.604 121.341C322.654 121.341 321.668 121.304 320.646 121.231C319.648 121.158 318.722 121.048 317.87 120.901V97.2463C317.87 95.0737 317.554 93.3771 316.921 92.1565C316.312 90.9115 315.716 90.0814 315.131 89.6664Z" fill="black"/>
<path d="M375.955 110.319C375.955 111.491 376.137 112.553 376.503 113.505C376.892 114.457 377.391 115.165 378 115.628C377.781 116.629 377.318 117.716 376.612 118.887C375.931 120.059 375.237 120.926 374.531 121.487C371.317 121.439 368.894 120.352 367.263 118.228C365.632 116.105 364.816 113.517 364.816 110.465V67.5127L365.328 67H369.783C372.023 67 373.605 67.5127 374.531 68.538C375.48 69.5633 375.955 71.3453 375.955 73.8842V110.319ZM343.452 103.069C343.452 98.8697 344.109 95.33 345.424 92.4494C346.763 89.5444 348.54 87.3473 350.756 85.8582C352.972 84.3691 355.418 83.6245 358.097 83.6245C360.629 83.6245 362.869 84.1494 364.816 85.1991C366.788 86.2244 368.578 87.2375 370.185 88.2384L368.359 96.3675C366.947 95.2202 365.51 94.2315 364.049 93.4015C362.589 92.547 361.262 92.1198 360.069 92.1198C358.9 92.1198 357.95 92.5715 357.22 93.4747C356.514 94.3535 355.991 95.6229 355.65 97.283C355.309 98.9186 355.138 100.872 355.138 103.142C355.138 105.388 355.321 107.231 355.686 108.671C356.076 110.087 356.599 111.137 357.257 111.82C357.938 112.479 358.693 112.809 359.521 112.809C360.3 112.809 361.201 112.577 362.223 112.113C363.27 111.625 364.281 110.722 365.254 109.403C366.253 108.061 367.068 106.108 367.701 103.545L370.258 110.026C370.039 112.003 369.296 113.907 368.03 115.738C366.764 117.569 365.133 119.071 363.136 120.242C361.164 121.414 358.973 122 356.563 122C353.617 122 351.17 121.194 349.222 119.583C347.274 117.972 345.826 115.738 344.876 112.882C343.927 110.026 343.452 106.755 343.452 103.069Z" fill="black"/>
</svg>
